<?xml version="1.0" standalone="no"?><!DOCTYPE svg PUBLIC "-//W3C//DTD SVG 1.1//EN" "http://www.w3.org/Graphics/SVG/1.1/DTD/svg11.dtd"><svg height="586" node-id="1" sillyvg="true" template-height="586" template-width="759" version="1.1" viewBox="0 0 759 586" width="759" xmlns="http://www.w3.org/2000/svg" xmlns:xlink="http://www.w3.org/1999/xlink"><defs node-id="56"></defs><path d="M 696.38 586.29 C 713.57 586.29 730.01 579.27 741.89 566.85 C 753.77 554.43 760.06 537.69 759.30 520.52 C 757.23 473.66 727.44 406.49 646.26 345.83 C 533.62 261.67 607.88 69.50 460.02 49.43 C 216.99 16.44 262.97 232.16 112.90 310.81 C 17.37 360.87 0.01 458.82 0.00 523.41 C 0.03 558.16 28.22 586.31 62.98 586.29 Z" fill="#f3f5fd" fill-rule="nonzero" node-id="58" stroke="none" target-height="569.86597" target-width="760.0606" target-x="0" target-y="16.444"></path><g node-id="176"><g node-id="181"><path d="M 303.35 8.82 L 548.75 8.82 C 567.54 8.82 582.77 24.06 582.77 42.85 L 582.77 543.57 C 582.77 562.36 567.54 577.60 548.75 577.60 L 303.35 577.60 C 284.56 577.60 269.32 562.36 269.32 543.57 L 269.32 42.85 C 269.32 24.06 284.56 8.82 303.35 8.82 Z" fill="#ffffff" fill-rule="nonzero" group-id="1,6" node-id="64" stroke="none" target-height="568.772" target-width="313.451" target-x="269.323" target-y="8.823"></path><path d="M 548.75 586.42 L 303.35 586.42 C 279.70 586.39 260.53 567.22 260.50 543.57 L 260.50 42.85 C 260.53 19.20 279.70 0.03 303.35 0.00 L 548.75 0.00 C 572.40 0.03 591.57 19.20 591.60 42.85 L 591.60 543.57 C 591.57 567.22 572.40 586.39 548.75 586.42 Z M 303.35 17.65 C 289.44 17.66 278.17 28.94 278.15 42.85 L 278.15 543.57 C 278.17 557.48 289.44 568.75 303.35 568.77 L 548.75 568.77 C 562.66 568.75 573.93 557.48 573.95 543.57 L 573.95 42.85 C 573.93 28.94 562.66 17.67 548.75 17.65 Z" fill="#dee8f5" fill-rule="nonzero" group-id="1,6" node-id="66" stroke="none" target-height="586.419" target-width="331.09998" target-x="260.5" target-y="0"></path></g><path d="M 372.32 8.82 L 479.78 8.82 L 479.78 8.82 L 479.78 29.67 C 479.78 38.29 472.79 45.28 464.17 45.28 L 387.92 45.28 C 379.30 45.28 372.32 38.29 372.32 29.67 L 372.32 8.82 L 372.32 8.82 Z" fill="#dee8f5" fill-rule="nonzero" group-id="1" node-id="69" stroke="none" target-height="36.457" target-width="107.46399" target-x="372.316" target-y="8.823"></path></g><g node-id="177"><g node-id="182"><path d="M 87.59 133.59 C 87.44 118.72 93.32 109.50 101.28 104.44 C 109.14 99.45 133.80 95.11 143.15 113.23 C 149.25 125.05 146.84 129.28 148.57 148.22 C 150.29 167.16 156.93 169.15 163.67 192.10 C 168.95 210.11 139.37 219.67 113.75 218.84 C 88.14 218.01 71.91 212.34 70.42 196.05 C 68.28 172.68 87.89 162.72 87.59 133.59 Z" fill="#0f1011" fill-rule="nonzero" group-id="2,7" node-id="76" stroke="none" target-height="124.561005" target-width="100.664" target-x="68.282" target-y="95.106"></path><path d="M 102.85 174.70 C 102.85 174.70 110.55 170.53 108.63 149.49 L 124.58 146.38 C 124.58 146.38 122.95 165.28 131.09 171.19 Z" fill="#eda59f" fill-rule="nonzero" group-id="2,7" node-id="78" stroke="none" target-height="28.319992" target-width="28.237999" target-x="102.854" target-y="146.38"></path><g node-id="186"><path d="M 127.78 167.27 L 114.42 157.24 L 124.84 157.04 C 125.18 160.60 126.17 164.07 127.78 167.27 Z" fill="#000000" fill-opacity="0.15" fill-rule="nonzero" group-id="2,7,11" node-id="82" stroke="none" target-height="10.231003" target-width="13.364998" target-x="114.418" target-y="157.041"></path></g><path d="M 99.49 141.40 C 100.65 147.78 104.19 153.80 109.85 155.81 C 116.01 158.19 122.67 159.03 129.23 158.25 C 146.71 156.65 142.88 116.92 134.51 109.27 C 126.13 101.62 101.81 106.73 98.96 119.68 C 97.49 126.38 98.38 135.33 99.49 141.40 Z" fill="#eda59f" fill-rule="nonzero" group-id="2,7" node-id="85" stroke="none" target-height="57.405174" target-width="49.212997" target-x="97.493" target-y="101.62"></path><path d="M 125.90 134.80 C 125.90 135.60 125.25 136.25 124.45 136.25 C 123.65 136.25 123.00 135.60 123.00 134.80 C 123.00 134.00 123.65 133.35 124.45 133.35 C 125.25 133.35 125.90 134.00 125.90 134.80 Z" fill="#0f1011" fill-rule="nonzero" group-id="2,7,12" node-id="89" stroke="none" target-height="2.8980103" target-width="2.8980026" target-x="122.999" target-y="133.355"></path><path d="M 137.32 133.76 C 137.32 134.56 136.67 135.21 135.87 135.21 C 135.07 135.21 134.42 134.56 134.42 133.76 C 134.42 132.96 135.07 132.31 135.87 132.31 C 136.67 132.31 137.32 132.96 137.32 133.76 Z" fill="#0f1011" fill-rule="nonzero" group-id="2,7,12" node-id="91" stroke="none" target-height="2.8980103" target-width="2.8980103" target-x="134.422" target-y="132.312"></path><path d="M 138.35 130.65 C 138.72 130.65 139.03 130.35 139.03 129.97 C 139.03 129.59 138.72 129.29 138.35 129.29 L 134.51 129.28 L 134.51 129.28 C 134.14 129.29 133.85 129.59 133.85 129.96 C 133.85 130.32 134.14 130.62 134.51 130.64 L 138.35 130.65 Z" fill="#0f1011" fill-rule="nonzero" group-id="2,7,12" node-id="93" stroke="none" target-height="1.3740082" target-width="5.1739044" target-x="133.85309" target-y="129.277"></path><path d="M 121.29 132.21 C 121.35 132.21 121.40 132.20 121.46 132.19 L 125.23 131.24 C 125.59 131.14 125.80 130.78 125.71 130.42 C 125.62 130.06 125.26 129.84 124.90 129.92 L 121.13 130.87 C 120.79 130.95 120.57 131.27 120.61 131.61 C 120.66 131.95 120.95 132.21 121.29 132.21 Z" fill="#0f1011" fill-rule="nonzero" group-id="2,7,12" node-id="95" stroke="none" target-height="2.3670044" target-width="5.22818" target-x="120.57299" target-y="129.83919"></path><path d="M 125.22 146.21 C 125.22 146.21 130.58 146.72 134.31 145.38 C 134.31 145.38 134.31 148.90 130.09 149.29 C 125.86 149.67 125.22 146.21 125.22 146.21 Z" fill="#ffffff" fill-rule="nonzero" group-id="2,7,12" node-id="97" stroke="none" target-height="4.294998" target-width="9.090996" target-x="125.223" target-y="145.379"></path><path d="M 111.11 124.74 C 110.72 153.60 107.94 164.81 107.94 164.81 C 107.94 164.81 94.28 148.30 92.22 130.81 C 90.29 114.41 102.29 104.61 110.44 102.71 C 141.42 95.49 143.57 118.08 143.57 118.08 C 141.57 125.79 107.75 130.58 107.75 130.58" fill="#0f1011" fill-rule="nonzero" group-id="2,7" node-id="100" stroke="none" target-height="69.31799" target-width="53.285995" target-x="90.287" target-y="95.487"></path><path d="M 117.19 141.12 C 117.48 144.48 115.00 147.46 111.63 147.76 C 108.26 148.07 105.28 145.60 104.95 142.23 C 104.78 140.60 105.27 138.97 106.32 137.72 C 107.37 136.46 108.88 135.68 110.51 135.56 C 114.89 135.37 116.88 137.74 117.19 141.12 Z" fill="#eda59f" fill-rule="nonzero" group-id="2,7" node-id="102" stroke="none" target-height="12.698822" target-width="12.70414" target-x="104.77864" target-y="135.373"></path><path d="M 130.95 142.78 C 130.70 142.78 130.49 142.60 130.46 142.36 C 130.42 142.11 130.56 141.88 130.80 141.81 L 133.74 140.87 L 131.64 136.30 C 131.56 136.14 131.57 135.94 131.67 135.79 C 131.78 135.64 131.95 135.56 132.14 135.58 C 132.32 135.60 132.47 135.72 132.54 135.88 L 134.89 140.97 C 134.95 141.10 134.95 141.25 134.89 141.38 C 134.83 141.51 134.72 141.61 134.59 141.65 L 131.11 142.75 C 131.06 142.77 131.00 142.78 130.95 142.78 Z" fill="#000000" fill-opacity="0.15" fill-rule="nonzero" group-id="2,7,13" node-id="106" stroke="none" target-height="7.2178345" target-width="4.528122" target-x="130.41914" target-y="135.56317"></path></g><g node-id="183"><path d="M 234.21 219.91 C 234.21 219.91 240.09 212.93 246.35 211.83 C 252.61 210.72 251.04 214.32 247.33 217.00 C 243.61 219.69 235.23 225.09 235.23 225.09" fill="#eda59f" fill-rule="nonzero" group-id="2,8" node-id="112" stroke="none" target-height="14.375" target-width="18.39299" target-x="234.214" target-y="210.72"></path><path d="M 238.52 217.79 C 238.52 217.79 250.19 213.04 255.19 215.19 C 255.19 215.19 259.56 219.47 255.28 225.09 C 251.18 230.48 240.48 232.49 240.48 232.49 Z" fill="#eda59f" fill-rule="nonzero" group-id="2,8" node-id="114" stroke="none" target-height="19.440002" target-width="21.037003" target-x="238.519" target-y="213.045"></path></g><g node-id="184"><path d="M 171.05 575.47 L 150.19 572.99 C 151.13 565.10 152.19 555.62 152.26 554.06 C 152.26 554.16 152.26 554.24 152.26 554.31 L 173.26 554.31 C 173.26 554.94 173.26 556.85 171.05 575.47 Z" fill="#eda59f" fill-rule="nonzero" group-id="2,9" node-id="119" stroke="none" target-height="21.408997" target-width="23.072006" target-x="150.193" target-y="554.061"></path><path d="M 87.37 577.98 L 66.37 577.91 C 66.37 577.91 66.44 556.23 66.44 554.31 L 87.44 554.31 C 87.44 556.23 87.37 577.98 87.37 577.98 Z" fill="#eda59f" fill-rule="nonzero" group-id="2,9" node-id="121" stroke="none" target-height="23.66803" target-width="21.07" target-x="66.371" target-y="554.311"></path><path d="M 141.80 568.84 L 178.80 568.21 C 177.26 529.25 177.00 484.68 176.59 444.35 C 176.47 434.36 175.72 424.38 174.33 414.48 C 168.38 371.76 164.49 329.28 156.48 286.80 L 156.21 286.88 L 155.43 281.55 L 79.35 276.86 L 75.39 326.56 C 75.39 326.56 65.48 498.50 60.96 567.64 L 97.83 570.76 C 104.48 502.97 114.76 404.20 121.08 332.99 C 128.34 367.66 133.28 403.56 139.59 437.93 C 140.85 480.96 141.92 525.94 141.80 568.84 Z" fill="#55affc" fill-rule="nonzero" group-id="2,9" node-id="123" stroke="none" target-height="293.9" target-width="117.836" target-x="60.964" target-y="276.856"></path><path d="M 112.90 586.10 C 114.04 586.09 115.13 585.61 115.90 584.77 C 116.68 583.94 117.07 582.81 116.98 581.67 L 116.98 581.67 C 116.85 580.08 115.82 578.70 114.32 578.14 L 89.88 569.96 C 88.92 569.64 87.87 569.76 87.00 570.28 C 83.64 572.61 79.62 573.80 75.53 573.68 C 72.35 573.45 69.29 572.33 66.72 570.45 C 66.25 570.07 65.61 570.00 65.07 570.25 C 64.53 570.51 64.19 571.06 64.19 571.65 L 64.19 583.61 C 64.19 584.32 64.47 585.00 64.98 585.50 C 65.48 586.01 66.16 586.29 66.88 586.28 Z" fill="#c1d8ed" fill-rule="nonzero" group-id="2,9" node-id="125" stroke="none" target-height="16.647156" target-width="52.880142" target-x="64.185524" target-y="569.6398"></path><path d="M 196.63 586.10 C 197.77 586.09 198.86 585.61 199.64 584.77 C 200.41 583.94 200.80 582.81 200.71 581.67 L 200.71 581.67 C 200.59 580.08 199.55 578.70 198.05 578.14 L 173.61 569.96 C 172.65 569.64 171.60 569.76 170.74 570.28 C 167.38 572.61 163.36 573.80 159.27 573.68 C 156.08 573.45 153.03 572.33 150.45 570.45 C 149.98 570.07 149.34 570.00 148.80 570.25 C 148.26 570.51 147.92 571.06 147.92 571.65 L 147.92 583.61 C 147.92 584.32 148.20 585.00 148.71 585.50 C 149.21 586.01 149.90 586.29 150.61 586.28 Z" fill="#c1d8ed" fill-rule="nonzero" group-id="2,9" node-id="127" stroke="none" target-height="16.647156" target-width="52.87912" target-x="147.91884" target-y="569.6398"></path></g><path d="M 182.78 254.64 C 179.06 254.64 175.62 252.68 173.73 249.48 L 137.58 188.28 L 155.66 177.60 L 187.47 231.44 L 237.74 214.24 L 244.53 234.11 L 186.18 254.07 C 185.08 254.45 183.93 254.64 182.78 254.64 Z" fill="#2f3235" fill-rule="nonzero" group-id="2" node-id="130" stroke="none" target-height="77.03845" target-width="106.959" target-x="137.576" target-y="177.601"></path><path d="M 160.36 284.90 C 156.17 294.53 73.84 298.53 72.74 281.59 C 72.04 270.81 81.54 261.40 81.54 240.39 C 81.54 219.38 62.21 192.55 77.96 176.80 C 82.53 172.23 90.42 169.28 100.04 169.27 C 100.76 174.88 134.82 174.90 135.08 169.40 C 136.38 169.42 137.39 169.44 138.02 169.47 C 171.20 170.90 156.62 208.66 156.30 236.40 C 155.91 268.86 164.68 274.98 160.36 284.90 Z" fill="#2f3235" fill-rule="nonzero" group-id="2" node-id="132" stroke="none" target-height="129.26" target-width="108.990005" target-x="62.213" target-y="169.27"></path><path d="M 212.31 264.35 C 209.76 264.35 207.30 263.38 205.45 261.63 L 156.92 215.84 C 154.30 213.39 153.19 209.73 154.01 206.24 C 154.84 202.75 157.46 199.97 160.90 198.95 C 164.33 197.93 168.05 198.82 170.65 201.29 L 211.76 240.08 L 297.24 145.88 C 299.63 143.19 303.28 141.98 306.80 142.73 C 310.33 143.48 313.17 146.06 314.26 149.50 C 315.35 152.93 314.50 156.68 312.05 159.32 L 219.71 261.07 C 217.91 263.06 215.38 264.24 212.70 264.35 C 212.57 264.35 212.44 264.35 212.31 264.35 Z" fill="#fdb754" fill-rule="nonzero" group-id="2" node-id="134" stroke="none" target-height="122.370056" target-width="162.1522" target-x="153.19356" target-y="141.98294"></path><path d="M 135.08 169.40 C 134.82 174.90 131.83 182.99 122.60 183.60 C 110.30 184.41 100.76 174.88 100.04 169.27 L 100.07 169.27 C 112.18 169.27 128.02 169.29 135.08 169.40 Z" fill="#eda59f" fill-rule="nonzero" group-id="2" node-id="136" stroke="none" target-height="15.141006" target-width="35.039993" target-x="100.043" target-y="169.269"></path><path d="M 163.05 246.39 C 163.05 246.39 160.73 233.22 170.25 232.13 C 176.26 231.44 191.36 223.09 194.23 230.07 C 196.71 236.13 182.29 243.34 177.13 244.67 C 172.50 245.86 163.05 246.39 163.05 246.39 Z" fill="#eda59f" fill-rule="nonzero" group-id="2,10" node-id="140" stroke="none" target-height="23.297012" target-width="35.98001" target-x="160.732" target-y="223.094"></path><path d="M 167.01 233.18 C 167.01 233.18 179.28 226.45 182.63 226.61 C 185.60 226.75 180.55 232.50 180.55 232.50 Z" fill="#eda59f" fill-rule="nonzero" group-id="2,10" node-id="142" stroke="none" target-height="6.727997" target-width="18.597992" target-x="167.007" target-y="226.452"></path><path d="M 113.58 267.94 C 109.28 267.94 105.38 265.41 103.63 261.48 L 73.08 193.08 L 92.99 184.19 L 119.61 243.79 L 170.85 228.06 L 177.25 248.91 L 116.78 267.46 C 115.75 267.78 114.67 267.94 113.58 267.94 Z" fill="#2f3235" fill-rule="nonzero" group-id="2" node-id="145" stroke="none" target-height="83.75099" target-width="104.171" target-x="73.079" target-y="184.191"></path><path d="M 261.16 217.30 C 261.70 216.52 261.63 215.47 260.99 214.78 C 259.47 213.14 256.66 210.54 254.80 211.50 C 252.16 212.87 246.88 217.96 248.35 220.60 C 249.81 223.24 252.85 226.15 254.81 225.26 C 256.29 224.60 259.47 219.76 261.16 217.30 Z" fill="#eda59f" fill-rule="nonzero" group-id="2" node-id="147" stroke="none" target-height="15.60701" target-width="14.819336" target-x="246.88" target-y="210.538"></path></g><g node-id="178"><path d="M 320.50 382.36 L 417.31 382.36 L 417.31 423.81 L 320.50 423.81 Z" fill="#fdb754" fill-rule="nonzero" group-id="3" node-id="152" stroke="none" target-height="41.450012" target-width="96.80899" target-x="320.504" target-y="382.358"></path><path d="M 434.78 382.36 L 531.59 382.36 L 531.59 423.81 L 434.78 423.81 Z" fill="#c1d8ed" fill-rule="nonzero" group-id="3" node-id="154" stroke="none" target-height="41.450012" target-width="96.80902" target-x="434.784" target-y="382.358"></path></g><path d="M 682.50 586.29 L 510.45 586.29 C 501.01 561.74 529.37 549.63 538.38 565.54 C 533.00 556.05 531.57 544.01 542.74 536.27 C 554.45 530.13 568.54 537.15 570.70 548.25 C 567.83 533.47 581.50 518.73 596.71 515.38 C 635.75 506.79 644.46 545.30 640.92 551.35 C 651.23 533.71 693.87 555.49 682.50 586.29 Z" fill="#c1d8ed" fill-rule="nonzero" node-id="157" stroke="none" target-height="79.50299" target-width="192.85202" target-x="501.014" target-y="506.786"></path><path d="M 495.90 194.50 C 495.93 212.56 488.93 229.93 476.38 242.92 C 466.96 221.87 447.95 207.50 426.06 207.50 C 404.15 207.50 385.14 221.89 375.72 242.94 C 353.91 220.28 349.93 185.84 366.00 158.80 C 382.07 131.77 414.23 118.80 444.56 127.14 C 474.88 135.47 495.90 163.05 495.90 194.50 Z" fill="#c1d8ed" fill-rule="nonzero" group-id="4" node-id="161" stroke="none" target-height="124.13583" target-width="145.99716" target-x="349.92856" target-y="118.80417"></path><path d="M 453.70 174.04 C 453.70 189.31 441.32 201.70 426.05 201.70 C 410.77 201.70 398.39 189.31 398.39 174.04 C 398.39 158.77 410.77 146.39 426.05 146.39 C 441.32 146.39 453.70 158.77 453.70 174.04 Z" fill="#f3f5fd" fill-rule="nonzero" group-id="4" node-id="163" stroke="none" target-height="55.309998" target-width="55.309998" target-x="398.393" target-y="146.386"></path><path d="M 476.38 242.92 C 463.22 256.61 445.04 264.35 426.05 264.35 C 407.06 264.35 388.89 256.62 375.72 242.94 C 385.14 221.89 404.15 207.50 426.06 207.50 C 447.95 207.50 466.96 221.87 476.38 242.92 Z" fill="#f3f5fd" fill-rule="nonzero" group-id="4" node-id="165" stroke="none" target-height="56.853577" target-width="100.66" target-x="375.719" target-y="207.5"></path><path d="M 320.50 292.00 L 531.59 292.00 L 531.59 300.42 L 320.50 300.42 Z" fill="#dee8f5" fill-rule="nonzero" group-id="5" node-id="170" stroke="none" target-height="8.429016" target-width="211.08902" target-x="320.504" target-y="291.995"></path><path d="M 320.50 314.94 L 531.59 314.94 L 531.59 323.37 L 320.50 323.37 Z" fill="#dee8f5" fill-rule="nonzero" group-id="5" node-id="172" stroke="none" target-height="8.429016" target-width="211.08902" target-x="320.504" target-y="314.943"></path><path d="M 320.50 338.68 L 417.31 338.68 L 417.31 347.11 L 320.50 347.11 Z" fill="#dee8f5" fill-rule="nonzero" group-id="5" node-id="174" stroke="none" target-height="8.428986" target-width="96.80899" target-x="320.504" target-y="338.677"></path></svg>